<?xml version="1.0" encoding="UTF-8" standalone="no"?>
<!-- Created with Inkscape (http://www.inkscape.org/) -->

<svg
   version="1.0"
   width="98.371208pt"
   height="151.82738pt"
   id="svg2"
   sodipodi:version="0.32"
   inkscape:version="1.2.1 (9c6d41e410, 2022-07-14)"
   sodipodi:docname="Python_New_Zealand_Verticle.svg"
   inkscape:export-filename="Python_New_Zealand_Verticle.png"
   inkscape:export-xdpi="189.6891"
   inkscape:export-ydpi="189.6891"
   xmlns:inkscape="http://www.inkscape.org/namespaces/inkscape"
   xmlns:sodipodi="http://sodipodi.sourceforge.net/DTD/sodipodi-0.dtd"
   xmlns:xlink="http://www.w3.org/1999/xlink"
   xmlns="http://www.w3.org/2000/svg"
   xmlns:svg="http://www.w3.org/2000/svg"
   xmlns:rdf="http://www.w3.org/1999/02/22-rdf-syntax-ns#"
   xmlns:cc="http://creativecommons.org/ns#"
   xmlns:dc="http://purl.org/dc/elements/1.1/">
  <path
     id="path1948"
     style="fill:url(#linearGradient1478);fill-opacity:1"
     d="m 64.918912,15.871751 c -4.583653,0.0213 -8.960939,0.412218 -12.8125,1.09375 -11.346216,2.004504 -13.406249,6.200102 -13.40625,13.937501 v 10.21875 h 26.8125 v 3.40625 h -26.8125 -10.0625 c -7.792459,0 -14.615759,4.683717 -16.75,13.59375 -2.4618199,10.212965 -2.571015,16.586022 0,27.25 1.905928,7.937852 6.457543,13.593748 14.25,13.59375 h 9.21875 v -12.25 c 0,-8.849902 7.657144,-16.656249 16.75,-16.65625 h 26.78125 c 7.454951,0 13.406253,-6.138164 13.40625,-13.625 v -25.53125 c 0,-7.266339 -6.12998,-12.724778 -13.40625,-13.937501 -4.605987,-0.766725 -9.385097,-1.115048 -13.96875,-1.09375 z m -14.5,8.218751 c 2.769547,0 5.03125,2.298645 5.03125,5.125 -2e-6,2.816336 -2.261703,5.09375 -5.03125,5.09375 -2.779476,-2e-6 -5.03125,-2.277416 -5.03125,-5.09375 -10e-7,-2.826354 2.251774,-5.125 5.03125,-5.125 z" />
  <path
     id="path1950"
     style="fill:url(#linearGradient1475);fill-opacity:1"
     d="m 95.637662,44.528002 v 11.90625 c 0,9.230755 -7.825895,16.999998 -16.75,17 h -26.78125 c -7.335833,0 -13.406249,6.278482 -13.40625,13.625 V 112.5905 c 0,7.26634 6.318588,11.54032 13.40625,13.625 8.487331,2.49561 16.626237,2.94663 26.78125,0 6.750155,-1.95439 13.406253,-5.88761 13.40625,-13.625 v -10.21875 h -26.78125 v -3.406249 h 26.78125 13.406258 c 7.79246,0 10.69625,-5.435408 13.40624,-13.59375 2.79933,-8.398886 2.68022,-16.475776 0,-27.25 -1.92578,-7.757441 -5.60387,-13.59375 -13.40624,-13.59375 z m -15.0625,64.656248 c 2.779478,0 5.03125,2.27742 5.03125,5.09375 -2e-6,2.82635 -2.251775,5.125 -5.03125,5.125 -2.76955,0 -5.03125,-2.29865 -5.03125,-5.125 2e-6,-2.81633 2.261697,-5.09375 5.03125,-5.09375 z" />
  <path
     class="st4"
     d="m 125.41922,73.663083 c -0.0977,-0.390676 -0.0977,-0.195337 0,0 -0.19534,2.05104 -0.39068,4.004412 -0.68368,6.055453 0,0.390675 -0.0977,0.78135 -0.19534,1.172023 -0.39068,1.758036 -0.78135,3.51607 -1.36736,5.274106 -2.63705,8.008826 -6.34846,16.505995 -17.38502,16.505995 h -9.473858 v 11.42723 c 19.533728,-4.19975 31.546968,-2.14871 29.105258,-40.434807 z"
     id="path1311"
     style="fill:#e9b96e;stroke-width:0.976686" />
  <metadata
     id="metadata2193">
    <rdf:RDF>
      <cc:Work
         rdf:about="">
        <dc:format>image/svg+xml</dc:format>
        <dc:type
           rdf:resource="http://purl.org/dc/dcmitype/StillImage" />
      </cc:Work>
    </rdf:RDF>
  </metadata>
  <sodipodi:namedview
     inkscape:window-height="1230"
     inkscape:window-width="1350"
     inkscape:pageshadow="2"
     inkscape:pageopacity="0.0"
     borderopacity="1.0"
     bordercolor="#666666"
     pagecolor="#ffffff"
     id="base"
     inkscape:zoom="2.8680177"
     inkscape:cx="78.277062"
     inkscape:cy="107.21691"
     inkscape:window-x="839"
     inkscape:window-y="123"
     inkscape:current-layer="svg2"
     inkscape:showpageshadow="2"
     inkscape:pagecheckerboard="0"
     inkscape:deskcolor="#d1d1d1"
     inkscape:document-units="pt"
     showgrid="false"
     inkscape:window-maximized="0" />
  <defs
     id="defs4">
    <linearGradient
       id="linearGradient12538">
      <stop
         style="stop-color:#5aa7d4;stop-opacity:1;"
         offset="0"
         id="stop12534" />
      <stop
         style="stop-color:#307998;stop-opacity:1;"
         offset="1"
         id="stop12536" />
    </linearGradient>
    <linearGradient
       id="linearGradient8866">
      <stop
         style="stop-color:#bed45a;stop-opacity:1;"
         offset="0"
         id="stop8862" />
      <stop
         style="stop-color:#809830;stop-opacity:1;"
         offset="1"
         id="stop8864" />
    </linearGradient>
    <linearGradient
       id="linearGradient8787">
      <stop
         style="stop-color:#3da362;stop-opacity:1;"
         offset="0"
         id="stop8783" />
      <stop
         style="stop-color:#255437;stop-opacity:1;"
         offset="1"
         id="stop8785" />
    </linearGradient>
    <linearGradient
       id="linearGradient8145">
      <stop
         style="stop-color:#c17e11;stop-opacity:1;"
         offset="0"
         id="stop8141" />
      <stop
         style="stop-color:#eba61e;stop-opacity:1;"
         offset="1"
         id="stop8143" />
    </linearGradient>
    <linearGradient
       id="linearGradient2795">
      <stop
         style="stop-color:#b8b8b8;stop-opacity:0.49803922"
         offset="0"
         id="stop2797" />
      <stop
         style="stop-color:#7f7f7f;stop-opacity:0"
         offset="1"
         id="stop2799" />
    </linearGradient>
    <linearGradient
       id="linearGradient2787">
      <stop
         style="stop-color:#7f7f7f;stop-opacity:0.5"
         offset="0"
         id="stop2789" />
      <stop
         style="stop-color:#7f7f7f;stop-opacity:0"
         offset="1"
         id="stop2791" />
    </linearGradient>
    <linearGradient
       id="linearGradient3676">
      <stop
         style="stop-color:#b2b2b2;stop-opacity:0.5"
         offset="0"
         id="stop3678" />
      <stop
         style="stop-color:#b3b3b3;stop-opacity:0"
         offset="1"
         id="stop3680" />
    </linearGradient>
    <linearGradient
       id="linearGradient3236">
      <stop
         style="stop-color:#f4f4f4;stop-opacity:1"
         offset="0"
         id="stop3244" />
      <stop
         style="stop-color:#ffffff;stop-opacity:1"
         offset="1"
         id="stop3240" />
    </linearGradient>
    <linearGradient
       id="linearGradient4671">
      <stop
         style="stop-color:#ffd43b;stop-opacity:1"
         offset="0"
         id="stop4673" />
      <stop
         style="stop-color:#ffe873;stop-opacity:1"
         offset="1"
         id="stop4675" />
    </linearGradient>
    <linearGradient
       id="linearGradient4689">
      <stop
         style="stop-color:#5a9fd4;stop-opacity:1"
         offset="0"
         id="stop4691" />
      <stop
         style="stop-color:#306998;stop-opacity:1"
         offset="1"
         id="stop4693" />
    </linearGradient>
    <linearGradient
       x1="224.23996"
       y1="144.75717"
       x2="-65.308502"
       y2="144.75717"
       id="linearGradient2987"
       xlink:href="#linearGradient4671"
       gradientUnits="userSpaceOnUse"
       gradientTransform="translate(100.2702,99.61116)" />
    <linearGradient
       x1="172.94208"
       y1="77.475983"
       x2="26.670298"
       y2="76.313133"
       id="linearGradient2990"
       xlink:href="#linearGradient4689"
       gradientUnits="userSpaceOnUse"
       gradientTransform="translate(100.2702,99.61116)" />
    <linearGradient
       x1="172.94208"
       y1="77.475983"
       x2="26.670298"
       y2="76.313133"
       id="linearGradient2587"
       xlink:href="#linearGradient4689"
       gradientUnits="userSpaceOnUse"
       gradientTransform="translate(100.2702,99.61116)" />
    <linearGradient
       x1="224.23996"
       y1="144.75717"
       x2="-65.308502"
       y2="144.75717"
       id="linearGradient2589"
       xlink:href="#linearGradient4671"
       gradientUnits="userSpaceOnUse"
       gradientTransform="translate(100.2702,99.61116)" />
    <linearGradient
       x1="172.94208"
       y1="77.475983"
       x2="26.670298"
       y2="76.313133"
       id="linearGradient2248"
       xlink:href="#linearGradient4689"
       gradientUnits="userSpaceOnUse"
       gradientTransform="translate(100.2702,99.61116)" />
    <linearGradient
       x1="224.23996"
       y1="144.75717"
       x2="-65.308502"
       y2="144.75717"
       id="linearGradient2250"
       xlink:href="#linearGradient4671"
       gradientUnits="userSpaceOnUse"
       gradientTransform="translate(100.2702,99.61116)" />
    <linearGradient
       x1="224.23996"
       y1="144.75717"
       x2="-65.308502"
       y2="144.75717"
       id="linearGradient2255"
       xlink:href="#linearGradient4671"
       gradientUnits="userSpaceOnUse"
       gradientTransform="matrix(0.562541,0,0,0.567972,-11.5974,-7.60954)" />
    <linearGradient
       x1="172.94208"
       y1="76.176224"
       x2="26.670298"
       y2="76.313133"
       id="linearGradient2258"
       xlink:href="#linearGradient4689"
       gradientUnits="userSpaceOnUse"
       gradientTransform="matrix(0.562541,0,0,0.567972,-11.5974,-7.60954)" />
    <radialGradient
       cx="61.518883"
       cy="132.28575"
       r="29.036913"
       fx="61.518883"
       fy="132.28575"
       id="radialGradient2801"
       xlink:href="#linearGradient2795"
       gradientUnits="userSpaceOnUse"
       gradientTransform="matrix(1,0,0,0.177966,0,108.7434)" />
    <linearGradient
       x1="150.96111"
       y1="192.35176"
       x2="112.03144"
       y2="137.27299"
       id="linearGradient1475"
       xlink:href="#linearGradient8145"
       gradientUnits="userSpaceOnUse"
       gradientTransform="matrix(0.562541,0,0,0.567972,-4.9909927,4.1684615)" />
    <linearGradient
       x1="26.648937"
       y1="20.603781"
       x2="135.66525"
       y2="114.39767"
       id="linearGradient1478"
       xlink:href="#linearGradient12538"
       gradientUnits="userSpaceOnUse"
       gradientTransform="matrix(0.562541,0,0,0.567972,-4.9909927,4.1684615)" />
    <radialGradient
       cx="61.518883"
       cy="132.28575"
       r="29.036913"
       fx="61.518883"
       fy="132.28575"
       id="radialGradient1480"
       xlink:href="#linearGradient2795"
       gradientUnits="userSpaceOnUse"
       gradientTransform="matrix(1.7490565e-8,-0.23994696,1.054668,3.7915457e-7,-78.109429,148.85906)" />
    <clipPath
       id="SVGID_2_">
      <use
         xlink:href="#SVGID_1_"
         style="overflow:visible"
         id="use1288" />
    </clipPath>
    <rect
       id="SVGID_1_"
       x="-236.7"
       y="343.39999"
       width="119.9"
       height="116.2" />
  </defs>
  <g
     id="g1176"
     transform="translate(0,192)">
    <text
       xml:space="preserve"
       style="font-style:normal;font-variant:normal;font-weight:normal;font-stretch:normal;font-size:24.6376px;font-family:'Flux Regular';-inkscape-font-specification:'Flux Regular, ';fill:#307998;fill-opacity:1;stroke-width:3.93426;stroke-linecap:round;stroke-linejoin:round;paint-order:fill markers stroke"
       x="8.8034477"
       y="0.21957396"
       id="text945"><tspan
         sodipodi:role="line"
         id="tspan943"
         x="8.8034477"
         y="0.21957396"
         style="font-style:normal;font-variant:normal;font-weight:normal;font-stretch:normal;font-size:24.6376px;font-family:'Flux Regular';-inkscape-font-specification:'Flux Regular, ';fill:#307998;fill-opacity:1;stroke-width:3.93426">new zealand</tspan></text>
    <g
       id="g2466"
       transform="matrix(0.43806229,0,0,0.43183155,-55.052325,-54.606977)">
      <g
         id="g2729"
         transform="matrix(0.99059052,0,0,0.99059052,1.3973127,0.9152134)">
        <path
           id="path46"
           style="fill:#646464;fill-opacity:1;stroke-width:0.860473"
           d="m 179.57469,50.565601 c 0,-12.530332 -3.5729,-18.963243 -10.71872,-19.315503 -2.84323,-0.134191 -5.61936,0.31871 -8.32001,1.367102 -2.15548,0.771611 -3.60645,1.534842 -4.36968,2.306454 v 29.908411 c 4.57097,2.868394 8.63034,4.201938 12.16969,3.992266 7.48969,-0.49484 11.23872,-6.575491 11.23872,-18.25873 z m 8.81485,0.520001 c 0,6.365811 -1.49291,11.649689 -4.49549,15.851627 -3.34646,4.755488 -7.98452,7.204522 -13.9142,7.338721 -4.47033,0.142581 -9.07485,-1.258071 -13.81357,-4.193556 v 27.182604 l -7.66581,-2.734195 v -60.33683 c 1.25806,-1.543223 2.87677,-2.868386 4.83936,-3.992258 4.56258,-2.658714 10.10646,-4.025816 16.63163,-4.092907 l 0.10903,0.109031 c 5.96323,-0.07549 10.55936,2.373553 13.7884,7.338713 3.01097,4.554198 4.52065,10.391627 4.52065,17.52905 z" />
        <path
           id="path48"
           style="fill:#646464;fill-opacity:1;stroke-width:0.860473"
           d="m 235.2399,68.924972 c 0,8.538075 -0.85548,14.450982 -2.56645,17.738727 -1.71936,3.287746 -4.99033,5.91291 -9.8213,7.867104 -3.91678,1.543223 -8.15227,2.381934 -12.69808,2.524515 l -1.26645,-4.830969 c 4.62129,-0.629031 7.8755,-1.258071 9.76259,-1.887103 3.71549,-1.258062 6.26517,-3.187096 7.66581,-5.770329 1.12387,-2.105161 1.67742,-6.122579 1.67742,-12.069039 v -1.996124 c -5.24193,2.381935 -10.73549,3.564517 -16.48065,3.564517 -3.7742,0 -7.10389,-1.182582 -9.97227,-3.564517 -3.22066,-2.591623 -4.83098,-5.879369 -4.83098,-9.863237 V 28.733973 l 7.66582,-2.625165 v 32.114216 c 0,3.430326 1.1071,6.07227 3.32129,7.925823 2.21419,1.853544 5.08259,2.742575 8.59678,2.675484 3.5142,-0.07549 7.28001,-1.434201 11.28065,-4.092907 V 27.26623 h 7.66582 z" />
        <path
           id="path50"
           style="fill:#646464;fill-opacity:1;stroke-width:0.860473"
           d="m 265.16509,73.856591 c -0.91419,0.07548 -1.7529,0.10903 -2.52452,0.10903 -4.33613,0 -7.71614,-1.031612 -10.13162,-3.103226 -2.40711,-2.071613 -3.61484,-4.931618 -3.61484,-8.580005 V 32.088809 h -5.25033 V 27.26623 h 5.25033 V 14.459119 l 7.65742,-2.725814 V 27.26623 h 8.61356 v 4.822579 h -8.61356 V 62.07271 c 0,2.876775 0.77162,4.914839 2.31485,6.105811 1.32516,0.981291 3.43032,1.543232 6.29871,1.685812 z" />
        <path
           id="path52"
           style="fill:#646464;fill-opacity:1;stroke-width:0.860473"
           d="m 311.57932,73.227559 h -7.66581 V 43.637858 c 0,-3.010974 -0.70452,-5.602589 -2.10516,-7.766463 -1.61871,-2.449034 -3.86646,-3.673555 -6.75162,-3.673555 -3.5142,0 -7.90905,1.853552 -13.18452,5.560658 v 35.469061 h -7.66583 V 2.499108 l 7.66583,-2.4154844 V 32.298489 c 4.89807,-3.564516 10.24903,-5.350969 16.06129,-5.350969 4.05936,0 7.34711,1.367093 9.86323,4.092907 2.52453,2.725805 3.78259,6.122581 3.78259,10.181938 z" />
        <path
           id="path54"
           style="fill:#646464;fill-opacity:1;stroke-width:0.860473"
           d="m 352.32387,49.357859 c 0,-4.814199 -0.91418,-8.789686 -2.7342,-11.934851 -2.16386,-3.832906 -5.52709,-5.8542 -10.0729,-6.06388 -8.40388,0.48646 -12.59743,6.5084 -12.59743,18.049051 0,5.292268 0.87226,9.712267 2.63354,13.260013 2.24775,4.520648 5.61937,6.751621 10.11486,6.67614 8.43742,-0.0671 12.65613,-6.726461 12.65613,-19.986473 z m 8.3955,0.05032 c 0,6.852271 -1.7529,12.555501 -5.25033,17.109698 -3.84967,5.099359 -9.1671,7.657424 -15.95227,7.657424 -6.72646,0 -11.96839,-2.558065 -15.75098,-7.657424 -3.43033,-4.554197 -5.1413,-10.257427 -5.1413,-17.109698 0,-6.441292 1.85355,-11.859361 5.56065,-16.270978 3.91679,-4.680008 9.06647,-7.028393 15.43227,-7.028393 6.36582,0 11.54904,2.348385 15.54131,7.028393 3.70709,4.411617 5.56065,9.829686 5.56065,16.270978 z" />
        <path
           id="path56"
           style="fill:#646464;fill-opacity:1;stroke-width:0.860473"
           d="m 404.66779,73.227559 h -7.66581 V 41.960435 c 0,-3.430325 -1.03162,-6.10581 -3.09484,-8.034852 -2.06323,-1.920644 -4.8142,-2.851615 -8.24452,-2.776126 -3.64,0.0671 -7.10389,1.258063 -10.39162,3.564517 v 38.513585 h -7.66582 V 33.766232 c 4.41162,-3.212256 8.47098,-5.309039 12.17807,-6.290331 3.49743,-0.914192 6.58389,-1.367093 9.2426,-1.367093 1.82,0 3.53097,0.17613 5.14129,0.528382 3.01097,0.696131 5.46,1.987744 7.3471,3.883236 2.10516,2.096774 3.15355,4.612908 3.15355,7.556774 z" />
      </g>
    </g>
  </g>
</svg>
